<svg xmlns="http://www.w3.org/2000/svg" xmlns:xlink="http://www.w3.org/1999/xlink" width="100" height="100" viewBox="0 0 100 100">
  <defs>
    <style>
      .cls-1 {
        clip-path: url(#clip-instagram);
      }

      .cls-2 {
        fill: #990080;
      }

      .cls-3 {
        fill: #fff;
      }
    </style>
    <clipPath id="clip-instagram">
      <rect width="100" height="100"/>
    </clipPath>
  </defs>
  <g id="instagram" class="cls-1">
    <rect class="cls-3" width="100" height="100"/>
    <circle id="Ellipse_1" data-name="Ellipse 1" class="cls-2" cx="50" cy="50" r="50"/>
    <path id="Pfad_23" data-name="Pfad 23" class="cls-3" d="M26.262-35.976A13.443,13.443,0,0,0,12.8-22.512,13.443,13.443,0,0,0,26.262-9.047,13.443,13.443,0,0,0,39.726-22.512,13.443,13.443,0,0,0,26.262-35.976Zm0,22.219a8.77,8.77,0,0,1-8.754-8.754,8.762,8.762,0,0,1,8.754-8.754,8.762,8.762,0,0,1,8.754,8.754A8.77,8.77,0,0,1,26.262-13.758ZM43.418-36.527a3.141,3.141,0,0,0-3.141-3.141,3.141,3.141,0,0,0-3.141,3.141,3.133,3.133,0,0,0,3.141,3.141A3.133,3.133,0,0,0,43.418-36.527Zm8.918,3.188c-.2-4.207-1.16-7.934-4.242-11s-6.8-4.031-11-4.242c-4.336-.246-17.332-.246-21.668,0-4.2.2-7.922,1.16-11,4.23s-4.031,6.8-4.242,11C-.07-29.016-.07-16.02.176-11.684c.2,4.207,1.16,7.934,4.242,11s6.8,4.031,11,4.242c4.336.246,17.332.246,21.668,0,4.207-.2,7.934-1.16,11-4.242s4.031-6.8,4.242-11C52.582-16.02,52.582-29,52.336-33.34Zm-5.6,26.309a8.862,8.862,0,0,1-4.992,4.992C38.285-.668,30.082-.984,26.262-.984s-12.035.3-15.48-1.055A8.862,8.862,0,0,1,5.789-7.031c-1.371-3.457-1.055-11.66-1.055-15.48s-.3-12.035,1.055-15.481a8.862,8.862,0,0,1,4.992-4.992c3.457-1.371,11.66-1.055,15.48-1.055s12.035-.3,15.481,1.055a8.862,8.862,0,0,1,4.992,4.992c1.371,3.457,1.055,11.66,1.055,15.481S48.105-10.477,46.734-7.031Z" transform="translate(24.009 72.77)"/>
  </g>
</svg>
